<svg width="800" height="600" viewBox="0 0 800 600" xmlns="http://www.w3.org/2000/svg">
  <defs>
    <!-- Gradients for realistic effects -->
    <linearGradient id="motherboardGradient" x1="0%" y1="0%" x2="100%" y2="100%">
      <stop offset="0%" style="stop-color:#2d5016;stop-opacity:1" />
      <stop offset="30%" style="stop-color:#38a169;stop-opacity:1" />
      <stop offset="70%" style="stop-color:#2d5016;stop-opacity:1" />
      <stop offset="100%" style="stop-color:#1a4d0f;stop-opacity:1" />
    </linearGradient>
    
    <linearGradient id="cpuGradient" x1="0%" y1="0%" x2="100%" y2="100%">
      <stop offset="0%" style="stop-color:#4a5568;stop-opacity:1" />
      <stop offset="50%" style="stop-color:#2d3748;stop-opacity:1" />
      <stop offset="100%" style="stop-color:#1a202c;stop-opacity:1" />
    </linearGradient>
    
    <linearGradient id="heatsinkGradient" x1="0%" y1="0%" x2="100%" y2="100%">
      <stop offset="0%" style="stop-color:#a0aec0;stop-opacity:1" />
      <stop offset="50%" style="stop-color:#718096;stop-opacity:1" />
      <stop offset="100%" style="stop-color:#4a5568;stop-opacity:1" />
    </linearGradient>
    
    <linearGradient id="ramGradient" x1="0%" y1="0%" x2="100%" y2="100%">
      <stop offset="0%" style="stop-color:#667eea;stop-opacity:1" />
      <stop offset="50%" style="stop-color:#764ba2;stop-opacity:1" />
      <stop offset="100%" style="stop-color:#667eea;stop-opacity:1" />
    </linearGradient>
    
    <linearGradient id="gpuGradient" x1="0%" y1="0%" x2="100%" y2="100%">
      <stop offset="0%" style="stop-color:#1a202c;stop-opacity:1" />
      <stop offset="50%" style="stop-color:#2d3748;stop-opacity:1" />
      <stop offset="100%" style="stop-color:#1a202c;stop-opacity:1" />
    </linearGradient>
    
    <linearGradient id="psuGradient" x1="0%" y1="0%" x2="100%" y2="100%">
      <stop offset="0%" style="stop-color:#2d3748;stop-opacity:1" />
      <stop offset="50%" style="stop-color:#1a202c;stop-opacity:1" />
      <stop offset="100%" style="stop-color:#141821;stop-opacity:1" />
    </linearGradient>
    
    <radialGradient id="fanGradient" cx="50%" cy="50%" r="50%">
      <stop offset="0%" style="stop-color:#2d3748;stop-opacity:1" />
      <stop offset="100%" style="stop-color:#4a5568;stop-opacity:1" />
    </radialGradient>
    
    <!-- Circuit pattern -->
    <pattern id="circuitPattern" x="0" y="0" width="20" height="20" patternUnits="userSpaceOnUse">
      <rect width="20" height="20" fill="none"/>
      <path d="M0,10 L20,10" stroke="#ffd700" stroke-width="0.5" opacity="0.3"/>
      <path d="M10,0 L10,20" stroke="#ffd700" stroke-width="0.5" opacity="0.3"/>
      <circle cx="10" cy="10" r="1" fill="#ffd700" opacity="0.4"/>
    </pattern>
    
    <!-- Heatsink fins pattern -->
    <pattern id="heatsinkPattern" x="0" y="0" width="4" height="20" patternUnits="userSpaceOnUse">
      <rect width="4" height="20" fill="none"/>
      <rect x="0" y="0" width="2" height="20" fill="#718096"/>
      <rect x="2" y="0" width="2" height="20" fill="#4a5568"/>
    </pattern>
    
    <!-- CSS Styles for interactions -->
    <style type="text/css">
      .clickable-component {
        cursor: pointer;
        transition: all 0.3s ease;
      }
      
      .component-highlight {
        filter: brightness(1.4) drop-shadow(0 0 12px rgba(102, 126, 234, 0.8)) !important;
        animation: componentPulse 2s ease-in-out infinite;
      }
      
      .spinning-fan {
        animation: fanSpin 2s linear infinite;
        transform-origin: center;
      }
      
      .fan-blades {
        animation: fanSpin 2s linear infinite;
        transform-origin: center;
      }
      
      @keyframes fanSpin {
        from { transform: rotate(0deg); }
        to { transform: rotate(360deg); }
      }
      
      @keyframes componentPulse {
        0%, 100% { 
          filter: brightness(1.4) drop-shadow(0 0 12px rgba(102, 126, 234, 0.8));
        }
        50% { 
          filter: brightness(1.6) drop-shadow(0 0 20px rgba(102, 126, 234, 1));
        }
      }
    </style>
  </defs>
  
  <!-- Background -->
  <rect width="800" height="600" fill="#0f0f23"/>
  
  <!-- Motherboard Base -->
  <rect x="50" y="100" width="700" height="450" rx="15" ry="15" 
        fill="url(#motherboardGradient)" 
        stroke="#2d5016" 
        stroke-width="2"
        class="clickable-component"
        data-component="motherboard"/>
  
  <!-- Circuit traces overlay -->
  <rect x="50" y="100" width="700" height="450" rx="15" ry="15" 
        fill="url(#circuitPattern)" 
        opacity="0.6"/>
  
  <!-- Motherboard mounting holes -->
  <circle cx="70" cy="120" r="4" fill="#1a202c" stroke="#ffd700" stroke-width="1"/>
  <circle cx="730" cy="120" r="4" fill="#1a202c" stroke="#ffd700" stroke-width="1"/>
  <circle cx="70" cy="530" r="4" fill="#1a202c" stroke="#ffd700" stroke-width="1"/>
  <circle cx="730" cy="530" r="4" fill="#1a202c" stroke="#ffd700" stroke-width="1"/>
  
  <!-- CPU Socket -->
  <rect x="150" y="180" width="120" height="120" rx="8" ry="8" 
        fill="#2d3748" 
        stroke="#667eea" 
        stroke-width="2"/>
  
  <!-- CPU chip -->
  <rect x="170" y="200" width="80" height="80" rx="4" ry="4" 
        fill="url(#cpuGradient)" 
        stroke="#4a5568" 
        stroke-width="1"
        class="clickable-component"
        data-component="cpu"/>
  
  <!-- CPU contact points -->
  <g opacity="0.7">
    <circle cx="180" cy="210" r="1.5" fill="#ffd700"/>
    <circle cx="190" cy="210" r="1.5" fill="#ffd700"/>
    <circle cx="200" cy="210" r="1.5" fill="#ffd700"/>
    <circle cx="210" cy="210" r="1.5" fill="#ffd700"/>
    <circle cx="220" cy="210" r="1.5" fill="#ffd700"/>
    <circle cx="230" cy="210" r="1.5" fill="#ffd700"/>
    <circle cx="240" cy="210" r="1.5" fill="#ffd700"/>
    
    <circle cx="180" cy="220" r="1.5" fill="#ffd700"/>
    <circle cx="240" cy="220" r="1.5" fill="#ffd700"/>
    <circle cx="180" cy="230" r="1.5" fill="#ffd700"/>
    <circle cx="240" cy="230" r="1.5" fill="#ffd700"/>
    <circle cx="180" cy="240" r="1.5" fill="#ffd700"/>
    <circle cx="240" cy="240" r="1.5" fill="#ffd700"/>
    <circle cx="180" cy="250" r="1.5" fill="#ffd700"/>
    <circle cx="240" cy="250" r="1.5" fill="#ffd700"/>
    <circle cx="180" cy="260" r="1.5" fill="#ffd700"/>
    <circle cx="240" cy="260" r="1.5" fill="#ffd700"/>
    <circle cx="180" cy="270" r="1.5" fill="#ffd700"/>
    <circle cx="190" cy="270" r="1.5" fill="#ffd700"/>
    <circle cx="200" cy="270" r="1.5" fill="#ffd700"/>
    <circle cx="210" cy="270" r="1.5" fill="#ffd700"/>
    <circle cx="220" cy="270" r="1.5" fill="#ffd700"/>
    <circle cx="230" cy="270" r="1.5" fill="#ffd700"/>
    <circle cx="240" cy="270" r="1.5" fill="#ffd700"/>
  </g>
  
  <!-- CPU Heatsink -->
  <rect x="130" y="140" width="160" height="160" rx="12" ry="12" 
        fill="url(#heatsinkGradient)" 
        stroke="#718096" 
        stroke-width="2"
        class="clickable-component"
        data-component="heatsink"/>
  
  <!-- Heatsink fins -->
  <rect x="140" y="150" width="140" height="140" rx="8" ry="8" 
        fill="url(#heatsinkPattern)"/>
  
  <!-- CPU Fan -->
  <circle cx="210" cy="220" r="60" fill="url(#fanGradient)" stroke="#2d3748" stroke-width="2"
          class="clickable-component spinning-fan"
          data-component="fan"/>
  
  <!-- Fan blades -->
  <g transform="translate(210,220)">
    <path d="M-40,0 Q-20,-20 0,-40 Q20,-20 40,0 Q20,20 0,40 Q-20,20 -40,0 Z" 
          fill="#667eea" opacity="0.8"/>
    <path d="M0,-40 Q20,-20 40,0 Q20,20 0,40 Q-20,20 -40,0 Q-20,-20 0,-40 Z" 
          fill="#764ba2" opacity="0.6" transform="rotate(120)"/>
    <path d="M40,0 Q20,20 0,40 Q-20,20 -40,0 Q-20,-20 0,-40 Q20,-20 40,0 Z" 
          fill="#667eea" opacity="0.4" transform="rotate(240)"/>
    
    <!-- Fan center -->
    <circle cx="0" cy="0" r="8" fill="#2d3748"/>
    <circle cx="0" cy="0" r="4" fill="#4a5568"/>
  </g>
  
  <!-- RAM Slots -->
  <g id="ramSlots">
    <!-- RAM Slot 1 -->
    <rect x="350" y="150" width="15" height="120" rx="2" ry="2" 
          fill="#2d3748" stroke="#667eea" stroke-width="1"/>
    
    <!-- RAM Slot 2 -->
    <rect x="375" y="150" width="15" height="120" rx="2" ry="2" 
          fill="#2d3748" stroke="#667eea" stroke-width="1"/>
    
    <!-- RAM Slot 3 -->
    <rect x="400" y="150" width="15" height="120" rx="2" ry="2" 
          fill="#2d3748" stroke="#667eea" stroke-width="1"/>
    
    <!-- RAM Slot 4 -->
    <rect x="425" y="150" width="15" height="120" rx="2" ry="2" 
          fill="#2d3748" stroke="#667eea" stroke-width="1"/>
  </g>
  
  <!-- RAM Sticks (2 installed) -->
  <g id="ramSticks" class="clickable-component" data-component="ram">
    <!-- RAM Stick 1 -->
    <rect x="352" y="155" width="11" height="110" rx="1" ry="1" 
          fill="url(#ramGradient)" stroke="#667eea" stroke-width="1"/>
    
    <!-- RAM contacts -->
    <rect x="353" y="250" width="9" height="3" fill="#ffd700"/>
    
    <!-- RAM heat spreader -->
    <rect x="353" y="160" width="9" height="15" fill="#a0aec0"/>
    
    <!-- RAM Stick 2 -->
    <rect x="402" y="155" width="11" height="110" rx="1" ry="1" 
          fill="url(#ramGradient)" stroke="#667eea" stroke-width="1"/>
    
    <!-- RAM contacts -->
    <rect x="403" y="250" width="9" height="3" fill="#ffd700"/>
    
    <!-- RAM heat spreader -->
    <rect x="403" y="160" width="9" height="15" fill="#a0aec0"/>
  </g>
  
  <!-- GPU (Graphics Card) -->
  <g id="gpu" class="clickable-component" data-component="gpu">
    <!-- GPU PCB -->
    <rect x="120" y="350" width="300" height="80" rx="8" ry="8" 
          fill="url(#gpuGradient)" 
          stroke="#2d3748" 
          stroke-width="2"/>
    
    <!-- GPU Chip -->
    <rect x="200" y="370" width="60" height="40" rx="4" ry="4" 
          fill="#1a202c" stroke="#4a5568" stroke-width="1"/>
    
    <!-- GPU Memory chips -->
    <rect x="140" y="365" width="20" height="10" fill="#2d3748"/>
    <rect x="140" y="380" width="20" height="10" fill="#2d3748"/>
    <rect x="140" y="395" width="20" height="10" fill="#2d3748"/>
    <rect x="140" y="410" width="20" height="10" fill="#2d3748"/>
    
    <rect x="280" y="365" width="20" height="10" fill="#2d3748"/>
    <rect x="280" y="380" width="20" height="10" fill="#2d3748"/>
    <rect x="280" y="395" width="20" height="10" fill="#2d3748"/>
    <rect x="280" y="410" width="20" height="10" fill="#2d3748"/>
    
    <!-- GPU Fans -->
    <circle cx="170" cy="390" r="25" fill="url(#fanGradient)" stroke="#2d3748" stroke-width="1" class="spinning-fan"/>
    <circle cx="320" cy="390" r="25" fill="url(#fanGradient)" stroke="#2d3748" stroke-width="1" class="spinning-fan"/>
    
    <!-- GPU Fan blades -->
    <g transform="translate(170,390)">
      <path d="M-15,0 L0,-15 L15,0 L0,15 Z" fill="#48bb78" opacity="0.8"/>
      <path d="M0,-15 L15,0 L0,15 L-15,0 Z" fill="#38a169" opacity="0.6" transform="rotate(45)"/>
      <circle cx="0" cy="0" r="3" fill="#2d3748"/>
    </g>
    
    <g transform="translate(320,390)">
      <path d="M-15,0 L0,-15 L15,0 L0,15 Z" fill="#48bb78" opacity="0.8"/>
      <path d="M0,-15 L15,0 L0,15 L-15,0 Z" fill="#38a169" opacity="0.6" transform="rotate(45)"/>
      <circle cx="0" cy="0" r="3" fill="#2d3748"/>
    </g>
    
    <!-- GPU Power connectors -->
    <rect x="380" y="360" width="25" height="8" fill="#ffd700"/>
    <rect x="380" y="372" width="25" height="8" fill="#ffd700"/>
  </g>
  
  <!-- Power Supply Unit -->
  <g id="psu" class="clickable-component" data-component="power">
    <!-- PSU Body -->
    <rect x="500" y="400" width="120" height="80" rx="8" ry="8" 
          fill="url(#psuGradient)" 
          stroke="#2d3748" 
          stroke-width="2"/>
    
    <!-- PSU Fan -->
    <circle cx="560" cy="440" r="30" fill="url(#fanGradient)" stroke="#2d3748" stroke-width="2" class="spinning-fan"/>
    
    <!-- PSU Fan blades -->
    <g transform="translate(560,440)">
      <path d="M-20,0 L0,-20 L20,0 L0,20 Z" fill="#ed8936" opacity="0.8"/>
      <path d="M0,-20 L20,0 L0,20 L-20,0 Z" fill="#dd6b20" opacity="0.6" transform="rotate(60)"/>
      <path d="M20,0 L0,20 L-20,0 L0,-20 Z" fill="#ed8936" opacity="0.4" transform="rotate(120)"/>
      <circle cx="0" cy="0" r="5" fill="#2d3748"/>
    </g>
    
    <!-- PSU Label -->
    <rect x="510" y="410" width="100" height="15" fill="#ed8936" opacity="0.8"/>
    <text x="560" y="422" text-anchor="middle" font-family="Arial" font-size="8" fill="white">850W 80+ GOLD</text>
    
    <!-- Power cables -->
    <rect x="620" y="420" width="4" height="40" fill="#e53e3e"/>
    <rect x="626" y="420" width="4" height="40" fill="#ffd700"/>
    <rect x="632" y="420" width="4" height="40" fill="#48bb78"/>
    <rect x="638" y="420" width="4" height="40" fill="#2d3748"/>
  </g>
  
  <!-- Storage Drives -->
  <g id="storage" class="clickable-component" data-component="storage">
    <!-- SSD -->
    <rect x="500" y="200" width="80" height="8" rx="2" ry="2" 
          fill="#2d3748" stroke="#4a5568" stroke-width="1"/>
    <text x="540" y="206" text-anchor="middle" font-family="Arial" font-size="6" fill="white">SSD 1TB</text>
    
    <!-- HDD -->
    <rect x="500" y="220" width="80" height="25" rx="4" ry="4" 
          fill="#1a202c" stroke="#2d3748" stroke-width="1"/>
    <circle cx="540" cy="232" r="8" fill="#4a5568"/>
    <circle cx="540" cy="232" r="4" fill="#2d3748"/>
    <text x="540" y="238" text-anchor="middle" font-family="Arial" font-size="6" fill="white">HDD 2TB</text>
  </g>
  
  <!-- Expansion Slots -->
  <g id="expansionSlots">
    <rect x="100" y="300" width="150" height="8" fill="#2d3748" stroke="#48bb78" stroke-width="1"/>
    <rect x="100" y="320" width="150" height="8" fill="#2d3748" stroke="#48bb78" stroke-width="1"/>
    <rect x="100" y="480" width="150" height="8" fill="#2d3748" stroke="#48bb78" stroke-width="1"/>
    <rect x="100" y="500" width="150" height="8" fill="#2d3748" stroke="#48bb78" stroke-width="1"/>
  </g>
  
  <!-- I/O Connectors -->
  <g id="ioConnectors" class="clickable-component" data-component="connectors">
    <!-- USB Ports -->
    <rect x="650" y="140" width="12" height="6" fill="#2d3748" stroke="#4a5568" stroke-width="1"/>
    <rect x="665" y="140" width="12" height="6" fill="#2d3748" stroke="#4a5568" stroke-width="1"/>
    <rect x="680" y="140" width="12" height="6" fill="#2d3748" stroke="#4a5568" stroke-width="1"/>
    <rect x="695" y="140" width="12" height="6" fill="#2d3748" stroke="#4a5568" stroke-width="1"/>
    
    <!-- Audio Jacks -->
    <circle cx="660" cy="160" r="4" fill="#48bb78"/>
    <circle cx="670" cy="160" r="4" fill="#e53e3e"/>
    <circle cx="680" cy="160" r="4" fill="#667eea"/>
    
    <!-- Ethernet Port -->
    <rect x="650" y="170" width="15" height="10" fill="#ffd700" stroke="#ed8936" stroke-width="1"/>
    
    <!-- HDMI/DisplayPort -->
    <rect x="670" y="170" width="20" height="8" fill="#2d3748" stroke="#4a5568" stroke-width="1"/>
  </g>
  
  <!-- Capacitors -->
  <g id="capacitors">
    <circle cx="300" cy="180" r="6" fill="#4a5568" stroke="#2d3748" stroke-width="1"/>
    <circle cx="320" cy="180" r="6" fill="#4a5568" stroke="#2d3748" stroke-width="1"/>
    <circle cx="340" cy="180" r="6" fill="#4a5568" stroke="#2d3748" stroke-width="1"/>
    
    <circle cx="480" cy="300" r="8" fill="#667eea" stroke="#4a5568" stroke-width="1"/>
    <circle cx="500" cy="300" r="8" fill="#667eea" stroke="#4a5568" stroke-width="1"/>
    
    <circle cx="600" y="250" r="5" fill="#e53e3e" stroke="#2d3748" stroke-width="1"/>
    <circle cx="615" cy="250" r="5" fill="#e53e3e" stroke="#2d3748" stroke-width="1"/>
    <circle cx="630" cy="250" r="5" fill="#e53e3e" stroke="#2d3748" stroke-width="1"/>
  </g>
  
  <!-- BIOS Chip -->
  <rect x="600" y="180" width="25" height="15" rx="2" ry="2" 
        fill="#1a202c" stroke="#4a5568" stroke-width="1"
        class="clickable-component"
        data-component="bios"/>
  <text x="612" y="190" text-anchor="middle" font-family="Arial" font-size="6" fill="white">BIOS</text>
  
  <!-- Battery -->
  <circle cx="680" cy="300" r="12" fill="#c53030"
          class="clickable-component"
          data-component="battery"/>
  <circle cx="680" cy="300" r="8" fill="#e53e3e"/>
  <text x="680" y="305" text-anchor="middle" font-family="Arial" font-size="8" fill="white">+</text>
  
  <!-- Component Labels -->
  <g id="labels" font-family="Arial" font-size="12" fill="white">
    <text x="210" y="130" text-anchor="middle">CPU + Heatsink + Fan</text>
    <text x="387" y="140" text-anchor="middle">RAM Slots</text>
    <text x="270" y="340" text-anchor="middle">GPU (Graphics Card)</text>
    <text x="560" y="390" text-anchor="middle">Power Supply</text>
    <text x="540" y="190" text-anchor="middle">Storage</text>
    <text x="400" y="90" text-anchor="middle" font-size="16" font-weight="bold">Computer Motherboard</text>
  </g>
  
  <!-- Subtle glow effects -->
  <defs>
    <filter id="glow">
      <feGaussianBlur stdDeviation="3" result="coloredBlur"/>
      <feMerge> 
        <feMergeNode in="coloredBlur"/>
        <feMergeNode in="SourceGraphic"/>
      </feMerge>
    </filter>
  </defs>
  
  <!-- Apply glow to key components -->
  <circle cx="210" cy="220" r="62" fill="none" stroke="#667eea" stroke-width="1" opacity="0.3" filter="url(#glow)"/>
  <rect x="350" y="148" width="90" height="124" fill="none" stroke="#667eea" stroke-width="1" opacity="0.3" filter="url(#glow)"/>
  <rect x="118" y="348" width="304" height="84" fill="none" stroke="#48bb78" stroke-width="1" opacity="0.3" filter="url(#glow)"/>
  
  <!-- JavaScript for SVG interactions -->
  <script type="text/javascript">
  <![CDATA[
    // Component data for information display
    const componentData = {
        cpu: {
            title: 'CPU - Central Processing Unit',
            description: 'The brain of your computer! This powerful chip processes all instructions and calculations at incredible speeds. Modern CPUs can execute billions of operations per second, handling everything from simple calculations to complex gaming and video processing.'
        },
        gpu: {
            title: 'GPU - Graphics Processing Unit',
            description: 'The graphics powerhouse! This component renders all the beautiful visuals you see on your screen. With thousands of cores working in parallel, it excels at gaming, video editing, and AI computations. Those spinning fans keep it cool during intense workloads.'
        },
        ram: {
            title: 'RAM - Random Access Memory',
            description: 'Your computer\'s short-term memory! These colorful sticks store data that your CPU needs quick access to. More RAM means your computer can multitask better and run more programs simultaneously without slowing down.'
        },
        storage: {
            title: 'Storage Drives',
            description: 'Your computer\'s long-term memory! The thin SSD provides lightning-fast access to your files and programs, while the larger HDD offers massive storage capacity for photos, videos, and documents.'
        },
        motherboard: {
            title: 'Motherboard - The Main Circuit Board',
            description: 'The nervous system of your PC! This green circuit board connects all components together with thousands of tiny gold pathways, allowing them to communicate and work as a unified system. Every component plugs into the motherboard.'
        },
        power: {
            title: 'Power Supply Unit (PSU)',
            description: 'The heart that pumps life into your PC! It converts dangerous wall electricity (120V) into safe, precise voltages (3V, 5V, 12V) that each component needs. The colorful cables deliver power throughout the system.'
        },
        heatsink: {
            title: 'CPU Heatsink & Cooler',
            description: 'The CPU\'s cooling system! The aluminum heatsink with fins draws heat away from the CPU, while the fan blows cool air across it. Without proper cooling, your CPU would overheat and shut down in seconds.'
        },
        fan: {
            title: 'Cooling Fan',
            description: 'Essential for keeping components cool! This fan spins at thousands of RPM, moving air across heatsinks and through the case to prevent overheating. Modern fans are designed to be quiet while moving lots of air.'
        },
        bios: {
            title: 'BIOS Chip',
            description: 'The computer\'s startup instructions! This small chip contains the Basic Input/Output System that tells your computer how to boot up and recognize all the hardware components when you turn it on.'
        },
        battery: {
            title: 'CMOS Battery',
            description: 'Keeps time and settings! This small battery powers the motherboard\'s clock and stores BIOS settings even when your computer is unplugged. It typically lasts 5-10 years before needing replacement.'
        },
        connectors: {
            title: 'I/O Connectors',
            description: 'Your computer\'s connection hub! These ports include USB for devices, audio jacks for headphones and microphones, ethernet for internet, and video outputs like HDMI for monitors. They let you connect the outside world to your PC.'
        }
    };
    
    // Function to communicate with parent window
    function updateParentInfo(componentType) {
        if (window.parent && window.parent.updateComponentInfoFromSVG) {
            window.parent.updateComponentInfoFromSVG(componentType, componentData[componentType]);
        }
    }
    
    // Function to highlight component
    function highlightComponent(element) {
        // Remove previous highlights
        const allComponents = document.querySelectorAll('.clickable-component');
        allComponents.forEach(comp => {
            comp.classList.remove('component-highlight');
        });
        
        // Add highlight to clicked component
        element.classList.add('component-highlight');
        
        // Remove highlight after 4 seconds
        setTimeout(() => {
            element.classList.remove('component-highlight');
        }, 4000);
    }
    
    // Add click handlers to all clickable components
    document.addEventListener('DOMContentLoaded', function() {
        const clickableComponents = document.querySelectorAll('.clickable-component');
        
        clickableComponents.forEach(component => {
            component.addEventListener('click', function(e) {
                e.preventDefault();
                e.stopPropagation();
                
                const componentType = this.getAttribute('data-component');
                if (componentType && componentData[componentType]) {
                    highlightComponent(this);
                    updateParentInfo(componentType);
                }
            });
            
            // Add hover effects
            component.addEventListener('mouseenter', function() {
                this.style.cursor = 'pointer';
                this.style.filter = 'brightness(1.2) drop-shadow(0 0 8px rgba(102, 126, 234, 0.6))';
            });
            
            component.addEventListener('mouseleave', function() {
                if (!this.classList.contains('component-highlight')) {
                    this.style.filter = '';
                }
            });
        });
    });
  ]]>
  </script>
</svg>
